# xmcd CD database file
#
# Track frame offsets:
#	183
#	15833
#	29540
#	47380
#	59860
#	78093
#	92183
#	111350
#	126263
#	145608
#	165908
#
# Disc length: 2482 seconds
#
# Revision: 0
# Processed by: cddbd v1.5.2PL0 Copyright (c) Steve Scherf et al.
# Submitted via: CDex 1.51
#
DISCID=8409b00b
DTITLE=Hot Club The Zigan - Jazz Pure Vol.6 - Witchcraft
DYEAR=1991
DGENRE=Jazz
TTITLE0=Schuka Gili
TTITLE1=Rumänische Weisen
TTITLE2=Romani Gili
TTITLE3=Severina
TTITLE4=Zwischen Rosen
TTITLE5=You´d be so nice to come home
TTITLE6=Remember to Stufe Smith
TTITLE7=All the things you are
TTITLE8=Witchcraft
TTITLE9=Unknown
TTITLE10=Mari Gili Bista Ga
EXTD=YEAR: 1991
EXTT0=
EXTT1=
EXTT2=
EXTT3=
EXTT4=
EXTT5=
EXTT6=
EXTT7=
EXTT8=
EXTT9=
EXTT10=
PLAYORDER=
